<?xml version="1.0" encoding="utf-8"?>
<!-- Generator: Adobe Illustrator 21.1.0, SVG Export Plug-In . SVG Version: 6.00 Build 0)  -->
<svg version="1.1" id="Layer_1" xmlns="http://www.w3.org/2000/svg" xmlns:xlink="http://www.w3.org/1999/xlink" x="0px" y="0px"
	 viewBox="0 0 164.4 187.1" style="enable-background:new 0 0 164.4 187.1;" xml:space="preserve">
<style type="text/css">
	.st0{fill:#F9DD38;}
	.st1{fill:#353534;}
	.st2{fill:none;stroke:#353534;stroke-width:0.9;stroke-miterlimit:10;}
</style>
<path class="st0" d="M82.2,183.6c-0.3,0-0.6-0.1-0.8-0.2L4.8,139.2c-0.5-0.3-0.8-0.8-0.8-1.4V49.3c0-0.6,0.3-1.1,0.8-1.4L81.4,3.7
	c0.2-0.1,0.5-0.2,0.8-0.2s0.6,0.1,0.8,0.2l76.6,44.2c0.5,0.3,0.8,0.8,0.8,1.4v88.4c0,0.6-0.3,1.1-0.8,1.4L83,183.4
	C82.8,183.5,82.5,183.6,82.2,183.6z"/>
<path class="st1" d="M159.6,47.9L83,3.7c-0.2-0.1-0.5-0.2-0.8-0.2s-0.6,0.1-0.8,0.2L4.8,47.9C4.3,48.2,4,48.7,4,49.3v88.4
	c0,0.6,0.3,1.1,0.8,1.4l76.6,44.2c0.2,0.1,0.5,0.2,0.8,0.2c0.3,0,0.6-0.1,0.8-0.2l76.6-44.2c0.5-0.3,0.8-0.8,0.8-1.4V49.3
	C160.4,48.7,160.1,48.2,159.6,47.9z M6.3,137.4V49.7L82.2,5.9l75.9,43.8v87.6l-75.9,43.8L6.3,137.4z"/>
<g>
	<path class="st2" d="M79.2,121.9h6.5c0,0,0-34.3,0-36.9c0-2.4-2.3-5.1-3.2-5.1c-0.9,0-3.4,2.8-3.4,5
		C79.2,86.4,79.2,121.9,79.2,121.9z"/>
	<path class="st2" d="M72.1,121.9h4.1c0,0,0-34.3,0-36.9c0-2.4-1.4-5.1-2-5.1c-0.6,0-2.1,2.8-2.1,5C72.1,86.4,72.1,121.9,72.1,121.9
		z"/>
	<path class="st2" d="M88.7,121.9h4.1c0,0,0-34.3,0-36.9c0-2.4-1.4-5.1-2-5.1c-0.6,0-2.1,2.8-2.1,5C88.7,86.4,88.7,121.9,88.7,121.9
		z"/>
	<path class="st2" d="M78.4,142.9h8.1c0,0,0-11.2,0-13.8c0-2.4-3-4.9-4.1-4.9c-1.2,0-4,2.6-4,4.9C78.4,130.5,78.4,142.9,78.4,142.9z
		"/>
	<line class="st2" x1="78.4" y1="140.8" x2="86.5" y2="140.8"/>
	<path class="st2" d="M72.4,142.9h4c0,0,0-12.6,0-15.1c0-2.3-1.4-2.9-2-2.9c-0.6,0-2.1,0.7-2.1,2.9
		C72.4,129.2,72.4,142.9,72.4,142.9z"/>
	<path class="st2" d="M69.3,142.9h2.2c0,0,0-12.6,0-15.1c0-2.3-0.8-2.8-1.1-2.8c-0.3,0-1.1,0.6-1.1,2.7
		C69.3,129.2,69.3,142.9,69.3,142.9z"/>
	<line class="st2" x1="72.4" y1="140.8" x2="76.5" y2="140.8"/>
	<line class="st2" x1="69.3" y1="140.8" x2="71.5" y2="140.8"/>
	<path class="st2" d="M92.5,142.9h-4c0,0,0-12.6,0-15.1c0-2.3,1.4-2.9,2-2.9c0.6,0,2.1,0.7,2.1,2.9
		C92.5,129.2,92.5,142.9,92.5,142.9z"/>
	<path class="st2" d="M95.6,142.9h-2.2c0,0,0-12.6,0-15.1c0-2.3,0.8-2.8,1.1-2.8c0.3,0,1.1,0.6,1.1,2.7
		C95.6,129.2,95.6,142.9,95.6,142.9z"/>
	<line class="st2" x1="92.5" y1="140.8" x2="88.4" y2="140.8"/>
	<line class="st2" x1="95.6" y1="140.8" x2="93.4" y2="140.8"/>
	<path class="st2" d="M78.4,180.5l3.8,1.2l4.3-1.5c0,0,0-29,0-31.6c0-2.4-3-4.9-4.1-4.9c-1.2,0-4,2.6-4,4.9
		C78.4,150.1,78.4,180.5,78.4,180.5z"/>
	<path class="st2" d="M85.6,181.7c0,0,0-9.2,0-11.2c0-1.9-2.4-4.4-3.2-4.4c-0.9,0-3.1,2.6-3.1,4.4c0,1.2,0,11.3,0,11.3"/>
	<line class="st2" x1="78.4" y1="161.5" x2="86.5" y2="161.5"/>
	<line class="st2" x1="78.4" y1="164.1" x2="86.5" y2="164.1"/>
	<path class="st2" d="M72.4,159.8h4c0,0,0-10,0-12.5c0-2.3-1.4-2.9-2-2.9c-0.6,0-2.1,0.7-2.1,2.9C72.4,148.7,72.4,159.8,72.4,159.8z
		"/>
	<path class="st2" d="M69.3,159.8h2.2c0,0,0-10,0-12.5c0-2.3-0.8-2.8-1.1-2.8c-0.3,0-1.1,0.6-1.1,2.7
		C69.3,148.7,69.3,159.8,69.3,159.8z"/>
	<line class="st2" x1="72.4" y1="157.7" x2="76.5" y2="157.7"/>
	<line class="st2" x1="69.3" y1="157.7" x2="71.5" y2="157.7"/>
	<path class="st2" d="M92.5,159.8h-4c0,0,0-10,0-12.5c0-2.3,1.4-2.9,2-2.9c0.6,0,2.1,0.7,2.1,2.9C92.5,148.7,92.5,159.8,92.5,159.8z
		"/>
	<path class="st2" d="M95.6,159.8h-2.2c0,0,0-10,0-12.5c0-2.3,0.8-2.8,1.1-2.8c0.3,0,1.1,0.6,1.1,2.7
		C95.6,148.7,95.6,159.8,95.6,159.8z"/>
	<line class="st2" x1="92.5" y1="157.7" x2="88.4" y2="157.7"/>
	<line class="st2" x1="95.6" y1="157.7" x2="93.4" y2="157.7"/>
	<polyline class="st2" points="67.6,174.1 67.6,123 97.4,123 97.4,173.8 	"/>
	<polygon class="st2" points="95.6,121.9 69.4,121.9 69.4,119 69.7,118.7 69.7,77.4 95.3,77.4 95.3,118.7 95.6,119 	"/>
	<polyline class="st2" points="90.8,34.3 94.4,34.3 94.4,73.3 94.4,73.5 94.4,76.3 70.6,76.3 70.6,73.5 70.6,73.3 70.6,34.3 
		74.2,34.3 	"/>
	<line class="st2" x1="83.2" y1="34.3" x2="89.9" y2="34.3"/>
	<line class="st2" x1="75.7" y1="34.3" x2="81.8" y2="34.3"/>
	<line class="st2" x1="75" y1="34.3" x2="75.7" y2="34.3"/>
	<path class="st2" d="M79.2,76.3h6.5c0,0,0-31,0-33.4c0-2.2-2.3-4.6-3.2-4.6c-0.9,0-3.4,2.5-3.4,4.6C79.2,44.2,79.2,76.3,79.2,76.3z
		"/>
	<path class="st2" d="M72.6,76.3h4.1c0,0,0-31,0-33.4c0-2.2-1.4-4.6-2-4.6c-0.6,0-2.1,2.5-2.1,4.6C72.6,44.2,72.6,76.3,72.6,76.3z"
		/>
	<path class="st2" d="M88.2,76.3h4.1c0,0,0-31,0-33.4c0-2.2-1.4-4.6-2-4.6c-0.6,0-2.1,2.5-2.1,4.6C88.2,44.2,88.2,76.3,88.2,76.3z"
		/>
	<path class="st2" d="M88.2,42.8l-2.5,0c0-2.2-2.3-9.2-3.2-9.2c-0.9,0-3.4,7.1-3.4,9.2l-2.5,0"/>
	<path class="st2" d="M76.7,42.8c0-2.2-1.4-9.2-2-9.2c-0.6,0-2.1,7.1-2.1,9.2l-1.8,0"/>
	<path class="st2" d="M94.3,42.8l-2,0c0-2.2-1.4-9.2-2-9.2c-0.6,0-2.1,7.1-2.1,9.2"/>
	<polygon class="st2" points="97.4,123 67.6,123 67.1,122.4 67.6,121.9 97.4,121.9 97.9,122.4 	"/>
	<polygon class="st2" points="96,77.4 69,77.4 68.5,76.8 69,76.3 96,76.3 96.4,76.8 	"/>
	<g>
		<polygon class="st2" points="68.9,116.3 67.8,116.3 67.7,116.9 67.7,121.8 69,121.8 69,116.9 		"/>
		<polygon class="st2" points="68.6,114 68,114 67.9,114.6 67.9,116.2 68.7,116.2 68.7,114.6 		"/>
		<line class="st2" x1="68.3" y1="114" x2="68.3" y2="112"/>
		<line class="st2" x1="67.8" y1="112.7" x2="68.8" y2="112.7"/>
	</g>
	<g>
		<polygon class="st2" points="97.3,116.3 96.2,116.3 96.1,116.9 96.1,121.8 97.4,121.8 97.4,116.9 		"/>
		<polygon class="st2" points="97,114 96.4,114 96.3,114.6 96.3,116.2 97.1,116.2 97.1,114.6 		"/>
		<line class="st2" x1="96.7" y1="114" x2="96.7" y2="112"/>
		<line class="st2" x1="96.2" y1="112.7" x2="97.2" y2="112.7"/>
	</g>
	<g>
		<polygon class="st2" points="87.7,116.3 86.7,116.3 86.5,116.9 86.5,121.8 87.8,121.8 87.8,116.9 		"/>
		<polygon class="st2" points="87.5,114 86.9,114 86.8,114.6 86.8,116.2 87.6,116.2 87.6,114.6 		"/>
		<line class="st2" x1="87.2" y1="114" x2="87.2" y2="112"/>
		<line class="st2" x1="86.7" y1="112.7" x2="87.7" y2="112.7"/>
	</g>
	<g>
		<polygon class="st2" points="78.2,116.3 77.1,116.3 77,116.9 77,121.8 78.3,121.8 78.3,116.9 		"/>
		<polygon class="st2" points="78,114 77.4,114 77.3,114.6 77.3,116.2 78,116.2 78,114.6 		"/>
		<line class="st2" x1="77.7" y1="114" x2="77.7" y2="112"/>
		<line class="st2" x1="77.2" y1="112.7" x2="78.1" y2="112.7"/>
	</g>
	<g>
		<polygon class="st2" points="70.5,70.8 69.5,70.8 69.3,71.5 69.3,76.3 70.6,76.3 70.6,71.4 		"/>
		<polygon class="st2" points="70.3,68.6 69.7,68.6 69.6,69.2 69.6,70.8 70.4,70.8 70.4,69.1 		"/>
		<line class="st2" x1="70" y1="68.6" x2="70" y2="66.6"/>
		<line class="st2" x1="69.5" y1="67.2" x2="70.4" y2="67.2"/>
	</g>
	<g>
		<polygon class="st2" points="95.6,70.8 94.5,70.8 94.4,71.5 94.4,76.3 95.7,76.3 95.7,71.4 		"/>
		<polygon class="st2" points="95.3,68.6 94.7,68.6 94.7,69.2 94.7,70.8 95.4,70.8 95.4,69.1 		"/>
		<line class="st2" x1="95" y1="68.6" x2="95" y2="66.6"/>
		<line class="st2" x1="94.6" y1="67.2" x2="95.5" y2="67.2"/>
	</g>
	<g>
		<polygon class="st2" points="78.4,70.8 77.4,70.8 77.2,71.5 77.2,76.3 78.5,76.3 78.5,71.4 		"/>
		<polygon class="st2" points="78.2,68.6 77.6,68.6 77.5,69.2 77.5,70.8 78.3,70.8 78.3,69.1 		"/>
		<line class="st2" x1="77.9" y1="68.6" x2="77.9" y2="66.6"/>
		<line class="st2" x1="77.4" y1="67.2" x2="78.4" y2="67.2"/>
	</g>
	<g>
		<polygon class="st2" points="87.5,70.8 86.4,70.8 86.3,71.5 86.3,76.3 87.6,76.3 87.6,71.4 		"/>
		<polygon class="st2" points="87.3,68.6 86.7,68.6 86.6,69.2 86.6,70.8 87.3,70.8 87.3,69.1 		"/>
		<line class="st2" x1="87" y1="68.6" x2="87" y2="66.6"/>
		<line class="st2" x1="86.5" y1="67.2" x2="87.4" y2="67.2"/>
	</g>
	<g>
		<polygon class="st2" points="71.3,31 70.7,31 70.6,31.4 70.6,36.5 71.4,36.5 71.4,31.3 		"/>
		<polygon class="st2" points="71.2,29.6 70.8,29.6 70.8,30 70.8,30.9 71.2,30.9 71.2,29.9 		"/>
		<line class="st2" x1="71" y1="29.6" x2="71" y2="28.4"/>
		<line class="st2" x1="70.7" y1="28.8" x2="71.3" y2="28.8"/>
	</g>
	<g>
		<polyline class="st2" points="82.9,33.8 82.9,31.3 82.8,31 82.2,31 82.1,31 82.1,33.9 		"/>
		<polygon class="st2" points="82.7,29.6 82.3,29.6 82.3,30 82.3,30.9 82.7,30.9 82.7,29.9 		"/>
		<line class="st2" x1="82.5" y1="29.6" x2="82.5" y2="28.4"/>
		<line class="st2" x1="82.2" y1="28.8" x2="82.8" y2="28.8"/>
	</g>
	<g>
		<line class="st2" x1="74.5" y1="33.1" x2="73.7" y2="34.3"/>
		<polyline class="st2" points="89.8,31.4 83.7,20.1 83.5,19 81.6,19 81.3,20.1 75.2,31.3 		"/>
		<line class="st2" x1="91.3" y1="34.3" x2="90.6" y2="32.9"/>
		<polygon class="st2" points="83.1,15 82,15 81.8,16.1 81.8,19 83.2,19 83.2,16.1 		"/>
		<line class="st2" x1="82.5" y1="15" x2="82.5" y2="11.5"/>
		<line class="st2" x1="81.7" y1="12.7" x2="83.3" y2="12.7"/>
		<line class="st2" x1="81.3" y1="20.1" x2="79.1" y2="31.3"/>
		<line class="st2" x1="83.7" y1="20.1" x2="85.9" y2="31.4"/>
	</g>
	<g>
		<line class="st2" x1="75.2" y1="34.3" x2="75.2" y2="34.1"/>
		<polyline class="st2" points="75.2,34.1 75.2,31.3 75.2,31 74.5,31 74.4,31.4 74.4,33.9 		"/>
		<polygon class="st2" points="75,29.6 74.7,29.6 74.6,30 74.6,30.9 75.1,30.9 75.1,29.9 		"/>
		<line class="st2" x1="74.8" y1="29.6" x2="74.8" y2="28.4"/>
		<line class="st2" x1="74.6" y1="28.8" x2="75.1" y2="28.8"/>
	</g>
	<g>
		<polygon class="st2" points="79,31 78.4,31 78.3,31.4 78.3,34.3 79.1,34.3 79.1,31.3 		"/>
		<polygon class="st2" points="78.9,29.6 78.5,29.6 78.4,30 78.4,30.9 78.9,30.9 78.9,29.9 		"/>
		<line class="st2" x1="78.7" y1="29.6" x2="78.7" y2="28.4"/>
		<line class="st2" x1="78.4" y1="28.8" x2="79" y2="28.8"/>
	</g>
	<g>
		<polygon class="st2" points="94.3,31 93.7,31 93.6,31.4 93.6,36.5 94.4,36.5 94.4,31.3 		"/>
		<polygon class="st2" points="94.2,29.6 93.8,29.6 93.8,30 93.8,30.9 94.2,30.9 94.2,29.9 		"/>
		<line class="st2" x1="94" y1="29.6" x2="94" y2="28.4"/>
		<line class="st2" x1="93.7" y1="28.8" x2="94.3" y2="28.8"/>
	</g>
	<g>
		<polygon class="st2" points="86.7,31 86,31 85.9,31.4 85.9,34.3 86.7,34.3 86.7,31.3 		"/>
		<polygon class="st2" points="86.5,29.6 86.1,29.6 86.1,30 86.1,30.9 86.6,30.9 86.6,29.9 		"/>
		<line class="st2" x1="86.3" y1="29.6" x2="86.3" y2="28.4"/>
		<line class="st2" x1="86" y1="28.8" x2="86.6" y2="28.8"/>
	</g>
	<g>
		<polyline class="st2" points="90.6,33.9 90.6,31.3 90.5,31 89.8,31 89.8,31.4 89.8,34.3 		"/>
		<polygon class="st2" points="90.4,29.6 90,29.6 89.9,30 89.9,30.9 90.4,30.9 90.4,29.9 		"/>
		<line class="st2" x1="90.2" y1="29.6" x2="90.2" y2="28.4"/>
		<line class="st2" x1="89.9" y1="28.8" x2="90.4" y2="28.8"/>
	</g>
	<line class="st2" x1="70.6" y1="36.5" x2="73.6" y2="36.5"/>
	<line class="st2" x1="75.7" y1="36.5" x2="80.9" y2="36.5"/>
	<line class="st2" x1="84.2" y1="36.5" x2="89.2" y2="36.5"/>
	<line class="st2" x1="91.3" y1="36.5" x2="94.3" y2="36.5"/>
	<line class="st2" x1="71.4" y1="34.3" x2="71.4" y2="36.5"/>
	<line class="st2" x1="72.6" y1="34.3" x2="72.6" y2="36.5"/>
	<line class="st2" x1="73.9" y1="34.3" x2="73.9" y2="35.5"/>
	<line class="st2" x1="76.3" y1="34.3" x2="76.3" y2="36.5"/>
	<line class="st2" x1="77.6" y1="34.3" x2="77.6" y2="36.5"/>
	<line class="st2" x1="78.8" y1="34.3" x2="78.8" y2="36.5"/>
	<line class="st2" x1="80" y1="34.3" x2="80" y2="36.5"/>
	<line class="st2" x1="81.3" y1="34.3" x2="81.3" y2="35.5"/>
	<line class="st2" x1="83.7" y1="34.3" x2="83.7" y2="35.5"/>
	<line class="st2" x1="85" y1="34.3" x2="85" y2="36.5"/>
	<line class="st2" x1="86.2" y1="34.3" x2="86.2" y2="36.5"/>
	<line class="st2" x1="87.4" y1="34.3" x2="87.4" y2="36.5"/>
	<line class="st2" x1="88.7" y1="34.3" x2="88.7" y2="36.5"/>
	<line class="st2" x1="91.1" y1="34.3" x2="91.1" y2="35.7"/>
	<line class="st2" x1="92.4" y1="34.3" x2="92.4" y2="36.5"/>
	<line class="st2" x1="93.6" y1="34.3" x2="93.6" y2="36.5"/>
	<rect x="79" y="70.7" transform="matrix(0.7071 0.7071 -0.7071 0.7071 73.827 -35.4074)" class="st2" width="1.3" height="1.3"/>
	
		<rect x="80.9" y="70.7" transform="matrix(0.7071 0.7071 -0.7071 0.7071 74.3746 -36.7295)" class="st2" width="1.3" height="1.3"/>
	
		<rect x="82.8" y="70.7" transform="matrix(0.7071 0.7071 -0.7071 0.7071 74.9344 -38.0811)" class="st2" width="1.3" height="1.3"/>
	<rect x="84.6" y="70.7" transform="matrix(0.7071 0.7071 -0.7071 0.7071 75.482 -39.4032)" class="st2" width="1.3" height="1.3"/>
	<rect x="70.9" y="70.8" transform="matrix(0.7071 0.7071 -0.7071 0.7071 71.43 -29.6094)" class="st2" width="1.2" height="1.2"/>
	
		<rect x="72.5" y="70.8" transform="matrix(0.7071 0.7071 -0.7071 0.7071 71.9182 -30.7656)" class="st2" width="1.2" height="1.2"/>
	
		<rect x="74.2" y="70.9" transform="matrix(0.7071 0.7071 -0.7071 0.7071 72.4172 -31.9475)" class="st2" width="1.2" height="1.2"/>
	
		<rect x="75.8" y="70.9" transform="matrix(0.7071 0.7071 -0.7071 0.7071 72.9054 -33.1036)" class="st2" width="1.2" height="1.2"/>
	
		<rect x="87.9" y="70.8" transform="matrix(0.7071 0.7071 -0.7071 0.7071 76.4266 -41.6723)" class="st2" width="1.2" height="1.2"/>
	
		<rect x="89.6" y="70.8" transform="matrix(0.7071 0.7071 -0.7071 0.7071 76.9148 -42.8284)" class="st2" width="1.2" height="1.2"/>
	
		<rect x="91.2" y="70.9" transform="matrix(0.7071 0.7071 -0.7071 0.7071 77.4138 -44.0103)" class="st2" width="1.2" height="1.2"/>
	<rect x="92.9" y="70.9" transform="matrix(0.7071 0.7071 -0.7071 0.7071 77.902 -45.1665)" class="st2" width="1.2" height="1.2"/>
	<line class="st2" x1="71.5" y1="72.3" x2="71.5" y2="76.2"/>
	<line class="st2" x1="71.5" y1="69.9" x2="71.5" y2="70.7"/>
	<line class="st2" x1="73.1" y1="72.3" x2="73.1" y2="76.2"/>
	<line class="st2" x1="73.1" y1="69.9" x2="73.1" y2="70.7"/>
	<line class="st2" x1="74.8" y1="72.3" x2="74.8" y2="76.2"/>
	<line class="st2" x1="74.8" y1="69.9" x2="74.8" y2="70.7"/>
	<line class="st2" x1="76.4" y1="72.3" x2="76.4" y2="76.2"/>
	<line class="st2" x1="76.4" y1="69.9" x2="76.4" y2="70.7"/>
	<line class="st2" x1="79.7" y1="72.3" x2="79.7" y2="76.2"/>
	<line class="st2" x1="79.7" y1="69.9" x2="79.7" y2="70.7"/>
	<line class="st2" x1="81.5" y1="72.3" x2="81.5" y2="76.2"/>
	<line class="st2" x1="81.5" y1="69.9" x2="81.5" y2="70.7"/>
	<line class="st2" x1="83.4" y1="72.3" x2="83.4" y2="76.2"/>
	<line class="st2" x1="83.4" y1="69.9" x2="83.4" y2="70.7"/>
	<line class="st2" x1="85.3" y1="72.3" x2="85.3" y2="76.2"/>
	<line class="st2" x1="85.3" y1="69.9" x2="85.3" y2="70.7"/>
	
		<rect x="78.8" y="116.1" transform="matrix(0.7071 0.7071 -0.7071 0.7071 105.9095 -21.9836)" class="st2" width="1.4" height="1.4"/>
	
		<rect x="80.8" y="116.1" transform="matrix(0.7071 0.7071 -0.7071 0.7071 106.4887 -23.3818)" class="st2" width="1.4" height="1.4"/>
	
		<rect x="82.8" y="116.1" transform="matrix(0.7071 0.7071 -0.7071 0.7071 107.0808 -24.8112)" class="st2" width="1.4" height="1.4"/>
	
		<rect x="84.8" y="116.1" transform="matrix(0.7071 0.7071 -0.7071 0.7071 107.66 -26.2095)" class="st2" width="1.4" height="1.4"/>
	<line class="st2" x1="79.5" y1="117.7" x2="79.5" y2="121.9"/>
	<line class="st2" x1="79.5" y1="115.2" x2="79.5" y2="116.1"/>
	<line class="st2" x1="81.5" y1="117.7" x2="81.5" y2="121.9"/>
	<line class="st2" x1="81.5" y1="115.2" x2="81.5" y2="116.1"/>
	<line class="st2" x1="83.5" y1="117.7" x2="83.5" y2="121.9"/>
	<line class="st2" x1="83.5" y1="115.2" x2="83.5" y2="116.1"/>
	<line class="st2" x1="85.5" y1="117.7" x2="85.5" y2="121.9"/>
	<line class="st2" x1="85.5" y1="115.2" x2="85.5" y2="116.1"/>
	
		<rect x="69.3" y="116.1" transform="matrix(0.7071 0.7071 -0.7071 0.7071 103.12 -15.2489)" class="st2" width="1.4" height="1.4"/>
	
		<rect x="71.2" y="116.1" transform="matrix(0.7071 0.7071 -0.7071 0.7071 103.6991 -16.6472)" class="st2" width="1.4" height="1.4"/>
	
		<rect x="73.3" y="116.1" transform="matrix(0.7071 0.7071 -0.7071 0.7071 104.2912 -18.0766)" class="st2" width="1.4" height="1.4"/>
	
		<rect x="75.2" y="116.1" transform="matrix(0.7071 0.7071 -0.7071 0.7071 104.8704 -19.4748)" class="st2" width="1.4" height="1.4"/>
	<line class="st2" x1="70" y1="117.7" x2="70" y2="121.9"/>
	<line class="st2" x1="70" y1="115.2" x2="70" y2="116.1"/>
	<line class="st2" x1="72" y1="117.7" x2="72" y2="121.9"/>
	<line class="st2" x1="72" y1="115.2" x2="72" y2="116.1"/>
	<line class="st2" x1="74" y1="117.7" x2="74" y2="121.9"/>
	<line class="st2" x1="74" y1="115.2" x2="74" y2="116.1"/>
	<line class="st2" x1="75.9" y1="117.7" x2="75.9" y2="121.9"/>
	<line class="st2" x1="75.9" y1="115.2" x2="75.9" y2="116.1"/>
	
		<rect x="88.3" y="116.1" transform="matrix(0.7071 0.7071 -0.7071 0.7071 108.6851 -28.6844)" class="st2" width="1.4" height="1.4"/>
	
		<rect x="90.2" y="116.1" transform="matrix(0.7071 0.7071 -0.7071 0.7071 109.2643 -30.0826)" class="st2" width="1.4" height="1.4"/>
	
		<rect x="92.3" y="116.1" transform="matrix(0.7071 0.7071 -0.7071 0.7071 109.8564 -31.512)" class="st2" width="1.4" height="1.4"/>
	
		<rect x="94.2" y="116.1" transform="matrix(0.7071 0.7071 -0.7071 0.7071 110.4355 -32.9103)" class="st2" width="1.4" height="1.4"/>
	<line class="st2" x1="89" y1="117.7" x2="89" y2="121.9"/>
	<line class="st2" x1="89" y1="115.2" x2="89" y2="116.1"/>
	<line class="st2" x1="91" y1="117.7" x2="91" y2="121.9"/>
	<line class="st2" x1="91" y1="115.2" x2="91" y2="116.1"/>
	<line class="st2" x1="93" y1="117.7" x2="93" y2="121.9"/>
	<line class="st2" x1="93" y1="115.2" x2="93" y2="116.1"/>
	<line class="st2" x1="94.9" y1="117.7" x2="94.9" y2="121.9"/>
	<line class="st2" x1="94.9" y1="115.2" x2="94.9" y2="116.1"/>
	<line class="st2" x1="88.5" y1="72.3" x2="88.5" y2="76.2"/>
	<line class="st2" x1="88.5" y1="69.9" x2="88.5" y2="70.7"/>
	<line class="st2" x1="90.2" y1="72.3" x2="90.2" y2="76.2"/>
	<line class="st2" x1="90.2" y1="69.9" x2="90.2" y2="70.7"/>
	<line class="st2" x1="91.8" y1="72.3" x2="91.8" y2="76.2"/>
	<line class="st2" x1="91.8" y1="69.9" x2="91.8" y2="70.7"/>
	<line class="st2" x1="93.5" y1="72.3" x2="93.5" y2="76.2"/>
	<line class="st2" x1="93.5" y1="69.9" x2="93.5" y2="70.7"/>
	<line class="st2" x1="79.3" y1="55.3" x2="85.6" y2="55.3"/>
	<line class="st2" x1="72.6" y1="55.3" x2="76.7" y2="55.3"/>
	<line class="st2" x1="88.3" y1="55.3" x2="92.4" y2="55.3"/>
	<line class="st2" x1="79.3" y1="102.4" x2="85.6" y2="102.4"/>
	<line class="st2" x1="72.1" y1="102.4" x2="76.2" y2="102.4"/>
	<line class="st2" x1="88.6" y1="102.4" x2="92.7" y2="102.4"/>
</g>
<g>
	<path class="st1" d="M42.4,35L11.5,52.7c0,0,0,0,0,0c0,0-0.1,0-0.1,0.1c0,0,0,0,0,0c0,0,0,0,0,0c0,0-0.1,0.1-0.1,0.1l0,0l0,0l0,0
		l0,0c0,0.1-0.1,0.1-0.1,0.2c0,0,0,0,0,0c0,0,0,0,0,0c0,0,0,0,0,0c0,0,0,0.1,0,0.1c0,0,0,0,0,0L11,89.5c0,0.4,0.3,0.8,0.8,0.8
		c0.4,0,0.8-0.3,0.8-0.8l0.1-32.2l7,17.5c0.2,0.4,0.6,0.6,1,0.4c0.4-0.2,0.6-0.6,0.4-1l-7.6-19.2l13.7,8c0.4,0.2,0.8,0.1,1-0.3
		c0.2-0.4,0.1-0.8-0.3-1l-13.7-8L34.6,51c0.4-0.1,0.7-0.4,0.7-0.9c-0.1-0.4-0.4-0.7-0.9-0.7l-18.7,2.6l27.4-15.7
		c0.4-0.2,0.5-0.7,0.3-1C43.2,34.9,42.7,34.8,42.4,35z"/>
	<circle class="st1" cx="11.7" cy="92" r="1"/>
</g>
<g>
	<path class="st1" d="M120.8,35.3c-0.2,0.4-0.1,0.8,0.3,1l27.4,15.7l-18.7-2.6c-0.4-0.1-0.8,0.2-0.9,0.7c-0.1,0.4,0.2,0.8,0.7,0.9
		l20.4,2.8l-13.7,8c-0.4,0.2-0.5,0.7-0.3,1c0.2,0.4,0.7,0.5,1,0.3l13.7-8l-7.6,19.2c-0.2,0.4,0,0.8,0.4,1c0.4,0.2,0.8,0,1-0.4
		l7-17.5l0.1,32.2c0,0.4,0.3,0.8,0.8,0.8c0.4,0,0.8-0.3,0.8-0.8l-0.1-36.2c0,0,0,0,0,0c0,0,0-0.1,0-0.1c0,0,0,0,0,0c0,0,0,0,0,0
		c0,0,0,0,0,0c0-0.1,0-0.1-0.1-0.2l0,0l0,0l0,0c0,0,0,0,0,0c0-0.1-0.1-0.1-0.1-0.1c0,0,0,0,0,0c0,0,0,0,0,0c0,0,0,0-0.1-0.1
		c0,0,0,0,0,0L121.9,35C121.5,34.8,121.1,34.9,120.8,35.3z"/>
	<circle class="st1" cx="152.5" cy="92" r="1"/>
</g>
<g>
	<path class="st1" d="M12.9,118.6c0-0.4,0.2-0.5,0.5-0.5c0.3,0,0.4,0.1,0.8,0.5l1.8,2.1h0v-2.1c0-0.4,0.2-0.5,0.6-0.5
		c0.3,0,0.5,0.2,0.5,0.5v3.5c0,0.4-0.2,0.5-0.5,0.5c-0.3,0-0.4-0.1-0.8-0.5l-1.8-2.1h0v2.1c0,0.4-0.2,0.5-0.6,0.5
		c-0.3,0-0.5-0.2-0.5-0.5V118.6z"/>
	<path class="st1" d="M22.9,120.3c0,1.4-0.9,2.3-2.4,2.3c-1.4,0-2.4-0.9-2.4-2.3c0-1.4,0.9-2.3,2.4-2.3
		C21.9,118,22.9,118.9,22.9,120.3z M19.3,120.3c0,0.7,0.3,1.4,1.2,1.4c0.8,0,1.2-0.7,1.2-1.4c0-0.7-0.3-1.4-1.2-1.4
		C19.6,118.9,19.3,119.6,19.3,120.3z"/>
	<path class="st1" d="M23.8,118.6c0-0.3,0.3-0.5,0.5-0.5h1.3c1.4,0,2.3,1.1,2.3,2.2c0,1.5-1.1,2.3-2.3,2.3h-1.3
		c-0.3,0-0.5-0.2-0.5-0.5V118.6z M24.9,121.6h0.6c0.9,0,1.3-0.5,1.3-1.3c0-0.8-0.4-1.3-1.2-1.3h-0.6V121.6z"/>
	<path class="st1" d="M28.8,118.6c0-0.3,0.3-0.5,0.5-0.5H31c0.3,0,0.5,0.2,0.5,0.5c0,0.3-0.2,0.5-0.5,0.5h-1.1v0.8h1
		c0.3,0,0.6,0.2,0.6,0.5s-0.2,0.5-0.6,0.5h-1v0.8h1.2c0.3,0,0.6,0.2,0.6,0.5c0,0.3-0.2,0.5-0.6,0.5h-1.7c-0.3,0-0.5-0.2-0.5-0.5
		V118.6z"/>
	<path class="st1" d="M32.7,121.4c0.3,0,0.6,0.3,1.2,0.3c0.4,0,0.6-0.2,0.6-0.4c0-0.3-0.4-0.4-1-0.6c-0.6-0.2-1.2-0.4-1.2-1.2
		c0-1,0.8-1.4,1.7-1.4c0.9,0,1.4,0.3,1.4,0.7c0,0.3-0.2,0.5-0.5,0.5c-0.4,0-0.5-0.2-0.9-0.2c-0.3,0-0.5,0.1-0.5,0.4
		c0,0.3,0.3,0.3,1,0.5c0.6,0.2,1.2,0.5,1.2,1.3c0,1-0.8,1.5-1.8,1.5c-0.6,0-1.6-0.2-1.6-0.7C32.2,121.6,32.4,121.4,32.7,121.4z"/>
	<path class="st1" d="M38.9,118c0.7,0,1.5,0.2,1.5,0.7c0,0.2-0.2,0.5-0.5,0.5c-0.3,0-0.5-0.2-1-0.2c-0.9,0-1.2,0.7-1.2,1.4
		c0,0.7,0.4,1.3,1.1,1.3c0.7,0,0.8-0.2,1.1-0.2c0.4,0,0.5,0.3,0.5,0.5c0,0.6-0.9,0.8-1.5,0.8c-1.5,0-2.4-1.1-2.4-2.3
		C36.5,118.9,37.4,118,38.9,118z"/>
	<path class="st1" d="M42.2,122c0,0.4-0.2,0.5-0.6,0.5c-0.3,0-0.5-0.2-0.5-0.5v-3.5c0-0.4,0.2-0.5,0.5-0.5c0.3,0,0.6,0.2,0.6,0.5
		v1.2h2v-1.2c0-0.4,0.2-0.5,0.6-0.5c0.3,0,0.5,0.2,0.5,0.5v3.5c0,0.4-0.2,0.5-0.5,0.5c-0.3,0-0.6-0.2-0.6-0.5v-1.3h-2V122z"/>
	<path class="st1" d="M51.1,120.3c0,1.4-0.9,2.3-2.4,2.3s-2.4-0.9-2.4-2.3c0-1.4,0.9-2.3,2.4-2.3S51.1,118.9,51.1,120.3z
		 M47.5,120.3c0,0.7,0.3,1.4,1.2,1.4c0.8,0,1.2-0.7,1.2-1.4c0-0.7-0.3-1.4-1.2-1.4C47.8,118.9,47.5,119.6,47.5,120.3z"/>
	<path class="st1" d="M56.6,120.3c0,1.4-0.9,2.3-2.4,2.3s-2.4-0.9-2.4-2.3c0-1.4,0.9-2.3,2.4-2.3S56.6,118.9,56.6,120.3z M53,120.3
		c0,0.7,0.3,1.4,1.2,1.4c0.8,0,1.2-0.7,1.2-1.4c0-0.7-0.3-1.4-1.2-1.4C53.4,118.9,53,119.6,53,120.3z"/>
	<path class="st1" d="M57.5,118.6c0-0.4,0.2-0.5,0.5-0.5c0.3,0,0.6,0.2,0.6,0.5v3h1.2c0.3,0,0.6,0.2,0.6,0.5c0,0.3-0.2,0.5-0.6,0.5
		h-1.7c-0.3,0-0.5-0.2-0.5-0.5V118.6z"/>
	<path class="st1" d="M16.1,125c2.2,0,3.2,1.8,3.2,3.7c0,1.9-1,3.7-3.2,3.7c-2.2,0-3.2-1.8-3.2-3.7C12.9,126.9,13.9,125,16.1,125z
		 M16.1,130.9c1.1,0,1.4-1.3,1.4-2.2c0-0.9-0.3-2.2-1.4-2.2s-1.4,1.3-1.4,2.2C14.7,129.6,15,130.9,16.1,130.9z"/>
	<path class="st1" d="M21.1,129.8c0.9,0,0.7,1.1,1.9,1.1c0.5,0,0.9-0.4,0.9-0.8c0-0.6-0.5-0.8-1.1-0.8c-0.4,0-0.7-0.2-0.7-0.8
		c0-0.4,0.2-0.6,0.9-0.7c0.4-0.1,0.7-0.3,0.7-0.7c0-0.4-0.3-0.5-0.7-0.5c-0.9,0-0.9,0.8-1.7,0.8c-0.4,0-0.7-0.4-0.7-0.7
		c0-1,1.4-1.7,2.4-1.7c1.3,0,2.4,0.7,2.4,1.9c0,0.5-0.3,1-0.9,1.4c0.8,0.3,1.2,1,1.2,1.8c0,1.3-1.2,2.2-2.7,2.2
		c-1.6,0-2.7-1-2.7-1.9C20.3,130.1,20.7,129.8,21.1,129.8z"/>
	<path class="st1" d="M30.1,125c2.2,0,3.2,1.8,3.2,3.7c0,1.9-1,3.7-3.2,3.7c-2.2,0-3.2-1.8-3.2-3.7C26.9,126.9,27.9,125,30.1,125z
		 M30.1,130.9c1.1,0,1.4-1.3,1.4-2.2c0-0.9-0.3-2.2-1.4-2.2s-1.4,1.3-1.4,2.2C28.7,129.6,29,130.9,30.1,130.9z"/>
</g>
</svg>
